HIERARCHY
ROOT Hips
{
  OFFSET 2.26061 22.2878 23.7974
  CHANNELS 6 Xposition Yposition Zposition Zrotation Xrotation Yrotation
  JOINT LeftUpLeg
  {
    OFFSET 8.64259 1.95398 -2.38835
    CHANNELS 3 Zrotation Xrotation Yrotation
    JOINT LeftLeg
    {
      OFFSET 43.7702 0 0
      CHANNELS 3 Zrotation Xrotation Yrotation
      JOINT LeftFoot
      {
        OFFSET 40.6238 0 0
        CHANNELS 3 Zrotation Xrotation Yrotation
        JOINT LeftToeBase
        {
          OFFSET 12.7242 0 0
          CHANNELS 3 Zrotation Xrotation Yrotation
          End Site
          {
            OFFSET 0 0 0
          }
        }
      }
    }
  }
  JOINT RightUpLeg
  {
    OFFSET -8.2249 1.95398 -2.59336
    CHANNELS 3 Zrotation Xrotation Yrotation
    JOINT RightLeg
    {
      OFFSET 43.5653 0 0
      CHANNELS 3 Zrotation Xrotation Yrotation
      JOINT RightFoot
      {
        OFFSET 40.6238 0 0
        CHANNELS 3 Zrotation Xrotation Yrotation
        JOINT RightToeBase
        {
          OFFSET 12.7242 0 0
          CHANNELS 3 Zrotation Xrotation Yrotation
          End Site
          {
            OFFSET 0 0 0
          }
        }
      }
    }
  }
  JOINT Spine
  {
    OFFSET 0.165834 0.87714 6.61349
    CHANNELS 3 Zrotation Xrotation Yrotation
    JOINT Spine1
    {
      OFFSET 7.38963 1.71661e-005 0
      CHANNELS 3 Zrotation Xrotation Yrotation
      JOINT Spine2
      {
        OFFSET 11.9445 1.14441e-005 0
        CHANNELS 3 Zrotation Xrotation Yrotation
        JOINT Spine3
        {
          OFFSET 14.7254 4.19617e-005 0
          CHANNELS 3 Zrotation Xrotation Yrotation
          JOINT Spine4
          {
            OFFSET 10.9679 0 0
            CHANNELS 3 Zrotation Xrotation Yrotation
            JOINT RightShoulder
            {
              OFFSET 2.46616 -1.6653 3.69651
              CHANNELS 3 Zrotation Xrotation Yrotation
              JOINT RightArm
              {
                OFFSET 13.0012 0 0
                CHANNELS 3 Zrotation Xrotation Yrotation
                JOINT RightForeArm
                {
                  OFFSET 28.7848 1.52588e-005 0
                  CHANNELS 3 Zrotation Xrotation Yrotation
                  JOINT RightHand
                  {
                    OFFSET 26.5688 1.52588e-005 0
                    CHANNELS 3 Zrotation Xrotation Yrotation
                    End Site
                    {
                      OFFSET 0 0 0
                    }
                  }
                }
              }
            }
            JOINT LeftShoulder
            {
              OFFSET 2.38034 -1.29275 -3.7523
              CHANNELS 3 Zrotation Xrotation Yrotation
              JOINT LeftArm
              {
                OFFSET 16.3182 6.10351e-005 0
                CHANNELS 3 Zrotation Xrotation Yrotation
                JOINT LeftForeArm
                {
                  OFFSET 27.0901 0 0
                  CHANNELS 3 Zrotation Xrotation Yrotation
                  JOINT LeftHand
                  {
                    OFFSET 24.5451 1.52588e-005 0
                    CHANNELS 3 Zrotation Xrotation Yrotation
                    End Site
                    {
                      OFFSET 0 0 0
                    }
                  }
                }
              }
            }
            JOINT Neck
            {
              OFFSET 5.0226 -0.0266342 0
              CHANNELS 3 Zrotation Xrotation Yrotation
              JOINT Head
              {
                OFFSET 6.69363 2.86102e-005 0
                CHANNELS 3 Zrotation Xrotation Yrotation
                End Site
                {
                  OFFSET 0 0 0
                }
              }
            }
          }
        }
      }
    }
  }
}
MOTION
Frames:	9
Frame Time:	0.0416667
-147.242 92.8426 -170.148 82.5341 -16.2586 84.1059 -173.985 6.78653 84.3279 -23.1813 14.2569 -0.957962 72.1932 15.4973 10.6536 38.6607 7.9651 5.2201 176.64 39.4728 92.5865 -30.8484 -2.37306 -0.66462 69.1594 -3.62973 -1.90082 45.1878 0.174731 -8.17481 -0.296635 7.83073 -90.0937 11.2123 -0.633843 -0.124276 -0.458471 -0.638715 -0.0962663 -22.9947 -0.567227 -0.309042 -2.982 -0.567194 -0.309034 94.7867 -57.3528 -92.473 16.6684 -8.88117 11.1836 -5.28316 -23.1703 -44.7563 0.268987 -0.394333 1.89559 -102.736 -49.2721 59.7735 -12.6577 26.1879 3.17444 2.17754 5.06383 -51.0861 11.4323 0.783663 2.80493 -22.3471 -13.9044 -5.39915 -6.44104 -14.32 -12.9802 
-143.368 92.4237 -168.06 83.5804 -14.3695 83.6706 -174.077 2.43772 84.684 -21.6209 16.8994 -0.572748 71.7427 14.8441 11.1329 39.7534 8.81686 3.79646 176.555 37.014 90.0139 -20.1787 0.577029 -1.07164 69.3279 -3.72167 -1.94205 43.0544 0.260534 -7.49372 -0.448892 7.80027 -89.9973 11.274 -0.891983 0.0938955 -0.396623 -0.886988 0.133052 -22.9342 -0.878972 -0.178551 -2.92153 -0.878953 -0.178546 95.7839 -58.7065 -90.9074 17.4105 -8.27091 13.1503 -5.22126 -23.5127 -43.3132 1.49578 -0.346681 3.55171 -101.976 -49.2343 60.8556 -13.4569 25.7504 3.63793 2.588 6.97072 -47.8919 10.4004 0.741804 3.05613 -22.0768 -13.0848 -6.04802 -1.94826 -13.9807 -11.7928 
-139.061 91.4464 -165.674 84.0071 -14.0156 82.9363 -173.617 -1.1828 85.1759 -21.3646 19.0565 -0.525863 71.5708 14.3342 11.7127 42.0317 10.6895 3.54328 175.82 37.1001 88.4064 -17.4227 5.72126 -0.756896 70.579 -3.7915 -1.94859 41.0334 0.389639 -4.97861 -0.483235 7.75945 -89.9466 11.3561 -0.93665 0.200125 -0.314539 -0.926923 0.241154 -22.8524 -0.953494 -0.0906579 -2.83975 -0.953475 -0.0906425 95.7633 -58.6894 -90.9378 18.3777 -7.50581 14.9018 -5.72118 -24.0635 -42.1353 2.54864 -0.310368 3.35469 -102.012 -50.0205 61.1171 -14.1843 24.9521 4.41996 2.06084 7.82913 -45.0834 9.96767 0.772316 3.59745 -21.2463 -13.1948 -4.85741 4.30555 -14.465 -10.8135 
-134.174 90.4591 -163.03 83.499 -13.8803 83.264 -173.288 -2.89583 86.9353 -23.7288 21.0054 0.414534 70.0858 12.1538 10.2999 46.3117 14.5134 5.43279 174.591 38.9315 88.2211 -22.1309 9.90476 0.502459 69.4422 -3.16104 -1.64898 37.9892 0.417608 -3.3731 -0.52497 7.65167 -90.1094 11.5713 -1.09547 -0.103412 -0.0992054 -1.09895 -0.0550991 -22.6376 -1.01375 -0.4279 -2.62501 -1.01373 -0.427896 96.4451 -58.1932 -90.0322 18.1253 -6.79521 14.9162 -6.5762 -25.579 -41.2282 3.73303 -0.271278 4.1915 -102.314 -50.3695 60.8227 -16.5425 23.4782 5.42407 1.50817 9.49533 -40.5843 9.98523 0.80488 3.88716 -18.5387 -12.881 -3.77107 8.11411 -14.0518 -8.78211 
-128.703 89.8599 -159.672 82.8565 -16.3769 83.568 -173.016 -4.22713 88.6006 -26.9516 22.7207 1.27032 65.5518 7.35155 7.72379 51.3884 19.122 6.77836 173.072 42.2133 90.2151 -34.1314 10.0967 2.25233 67.9608 -2.55605 -1.37078 38.9088 0.386967 -4.88389 -0.502928 7.6659 -90.2483 11.5402 -1.11665 -0.380276 -0.130336 -1.13231 -0.330769 -22.668 -0.950749 -0.698324 -2.65535 -0.950746 -0.698324 95.7933 -58.4021 -90.926 16.3151 -5.4028 13.0136 -7.49991 -26.9306 -40.2962 4.47922 -0.270818 4.0384 -102.635 -50.7079 60.5013 -19.915 20.0548 7.17728 1.1375 10.4586 -35.3382 10.0618 0.869247 4.42235 -14.5521 -12.177 -2.45147 9.72983 -13.1527 -7.80852 
-122.583 89.8282 -155.766 82.9688 -19.4719 84.7506 -172.587 -4.22504 91.1291 -32.567 24.0849 1.82524 56.5166 -0.687693 2.64988 53.5943 22.5587 12.3058 171.137 40.5189 92.9393 -40.3516 9.34922 4.01167 68.4626 -2.76437 -1.47613 37.3959 0.37617 -4.96495 -0.56446 7.6844 -90.3909 11.5014 -1.30573 -0.645325 -0.16899 -1.33285 -0.587229 -22.7066 -1.05141 -1.00792 -2.69391 -1.0514 -1.00793 94.5517 -57.2574 -92.813 16.8976 -3.83434 11.2654 -7.70199 -25.6141 -40.3232 3.63054 -0.261054 5.25057 -102.676 -50.7871 60.4749 -23.3419 18.4547 10.6051 -1.09061 8.314 -31.0488 10.3172 0.905489 4.56964 -11.3366 -10.8306 -0.206405 9.96935 -11.745 -7.76798 
-116.295 89.5612 -151.21 82.7515 -22.1665 84.4255 -172.318 0.13357 92.9503 -43.0543 20.1326 1.42331 43.5147 -9.65222 -5.84422 44.1943 13.9625 14.781 170.625 38.195 94.6291 -46.3287 7.28836 4.30075 75.6182 -5.31642 -2.53151 30.5997 0.335926 -5.05922 -0.486043 7.53792 -90.3428 11.7953 -1.1277 -0.563703 0.124762 -1.15144 -0.513531 -22.4121 -0.906173 -0.876578 -2.39944 -0.906169 -0.876576 93.7373 -55.5588 -94.2129 18.1522 -3.90991 10.1978 -5.84878 -21.9254 -40.5395 0.457746 -0.384235 4.33309 -101.886 -51.0672 61.706 -24.9637 19.0121 11.2749 -2.47487 9.14804 -26.489 7.33002 0.486627 2.46823 -9.59893 -10.2193 1.33612 9.31825 -11.1362 -7.90716 
-110.85 90.2332 -147.07 84.7936 -25.4093 86.1276 -173.085 8.7316 93.2107 -58.5238 17.1347 1.71318 42.6802 -9.95634 -3.11389 37.2611 6.93042 12.8647 172.052 31.1186 96.5336 -45.995 6.92683 3.64062 78.3695 -6.38765 -2.86774 28.9382 0.167287 -2.65533 -0.181291 7.62962 -90.3094 11.6126 -0.505532 -0.564026 -0.0583011 -0.529876 -0.541238 -22.5929 -0.312658 -0.689877 -2.58025 -0.312651 -0.68988 93.5825 -54.8565 -94.5426 18.0438 -4.35071 7.96023 -5.45305 -19.7035 -43.3538 0.0810476 -0.359544 3.63095 -101.744 -50.9224 61.8519 -26.4427 17.9541 13.0317 -2.05216 9.43415 -25.8594 7.54339 0.53995 2.89241 -8.94298 -9.95636 0.961383 9.87197 -10.8394 -7.4322 
-105.587 91.9198 -142.848 86.5021 -27.828 86.8631 -174.964 17.2488 92.4125 -65.2887 15.7636 2.0806 49.868 -4.78451 0.694805 42.2679 11.4457 9.32173 174.175 22.2576 97.2681 -40.7595 6.73223 2.24526 79.5047 -6.99214 -3.06681 29.5765 0.211018 -3.08911 0.143469 7.68504 -90.1733 11.5043 0.204437 -0.3658 -0.166732 0.188144 -0.374448 -22.7017 0.304912 -0.287446 -2.68907 0.304916 -0.287452 93.9904 -54.4626 -94.004 17.3534 -4.70516 5.20134 -6.32151 -18.8834 -47.3249 -1.67358 -0.427254 2.55304 -101.711 -50.8069 61.8547 -27.2018 17.5919 14.2554 -2.03776 8.55393 -26.5029 8.44194 0.628974 3.22463 -8.81184 -9.68855 0.730928 10.2637 -10.5387 -7.01115 
